<svg width="119" height="28" viewBox="0 0 119 28" fill="none" xmlns="http://www.w3.org/2000/svg">
<path d="M0.52 27V1.08H10.798C12.55 1.08 13.984 1.434 15.1 2.142C16.228 2.838 17.062 3.732 17.602 4.824C18.154 5.916 18.43 7.044 18.43 8.208C18.43 9.636 18.088 10.848 17.404 11.844C16.732 12.84 15.814 13.512 14.65 13.86V12.96C16.282 13.332 17.518 14.106 18.358 15.282C19.21 16.458 19.636 17.796 19.636 19.296C19.636 20.832 19.342 22.176 18.754 23.328C18.166 24.48 17.29 25.38 16.126 26.028C14.974 26.676 13.546 27 11.842 27H0.52ZM4.912 22.914H11.302C12.058 22.914 12.736 22.764 13.336 22.464C13.936 22.152 14.404 21.72 14.74 21.168C15.088 20.604 15.262 19.938 15.262 19.17C15.262 18.474 15.112 17.85 14.812 17.298C14.512 16.746 14.074 16.308 13.498 15.984C12.922 15.648 12.232 15.48 11.428 15.48H4.912V22.914ZM4.912 11.43H10.744C11.368 11.43 11.926 11.31 12.418 11.07C12.91 10.83 13.3 10.476 13.588 10.008C13.876 9.54 14.02 8.964 14.02 8.28C14.02 7.38 13.732 6.63 13.156 6.03C12.58 5.43 11.776 5.13 10.744 5.13H4.912V11.43ZM27.1669 27.54C25.7629 27.54 24.5749 27.276 23.6029 26.748C22.6309 26.208 21.8929 25.494 21.3889 24.606C20.8969 23.718 20.6509 22.74 20.6509 21.672C20.6509 20.736 20.8069 19.896 21.1189 19.152C21.4309 18.396 21.9109 17.748 22.5589 17.208C23.2069 16.656 24.0469 16.206 25.0789 15.858C25.8589 15.606 26.7709 15.378 27.8149 15.174C28.8709 14.97 30.0109 14.784 31.2349 14.616C32.4709 14.436 33.7609 14.244 35.1049 14.04L33.5569 14.922C33.5689 13.578 33.2689 12.588 32.6569 11.952C32.0449 11.316 31.0129 10.998 29.5609 10.998C28.6849 10.998 27.8389 11.202 27.0229 11.61C26.2069 12.018 25.6369 12.72 25.3129 13.716L21.3529 12.474C21.8329 10.83 22.7449 9.51 24.0889 8.514C25.4449 7.518 27.2689 7.02 29.5609 7.02C31.2889 7.02 32.8069 7.302 34.1149 7.866C35.4349 8.43 36.4129 9.354 37.0489 10.638C37.3969 11.322 37.6069 12.024 37.6789 12.744C37.7509 13.452 37.7869 14.226 37.7869 15.066V27H33.9889V22.788L34.6189 23.472C33.7429 24.876 32.7169 25.908 31.5409 26.568C30.3769 27.216 28.9189 27.54 27.1669 27.54ZM28.0309 24.084C29.0149 24.084 29.8549 23.91 30.5509 23.562C31.2469 23.214 31.7989 22.788 32.2069 22.284C32.6269 21.78 32.9089 21.306 33.0529 20.862C33.2809 20.31 33.4069 19.68 33.4309 18.972C33.4669 18.252 33.4849 17.67 33.4849 17.226L34.8169 17.622C33.5089 17.826 32.3869 18.006 31.4509 18.162C30.5149 18.318 29.7109 18.468 29.0389 18.612C28.3669 18.744 27.7729 18.894 27.2569 19.062C26.7529 19.242 26.3269 19.452 25.9789 19.692C25.6309 19.932 25.3609 20.208 25.1689 20.52C24.9889 20.832 24.8989 21.198 24.8989 21.618C24.8989 22.098 25.0189 22.524 25.2589 22.896C25.4989 23.256 25.8469 23.544 26.3029 23.76C26.7709 23.976 27.3469 24.084 28.0309 24.084Z" fill="#101913"/>
<path d="M49.4151 27.54C47.4111 27.54 45.7011 27.096 44.2851 26.208C42.8691 25.308 41.7831 24.084 41.0271 22.536C40.2831 20.988 39.9051 19.236 39.8931 17.28C39.9051 15.288 40.2951 13.524 41.0631 11.988C41.8431 10.44 42.9471 9.228 44.3751 8.352C45.8031 7.464 47.5011 7.02 49.4691 7.02C51.6771 7.02 53.5431 7.578 55.0671 8.694C56.6031 9.798 57.6051 11.31 58.0731 13.23L53.7531 14.4C53.4171 13.356 52.8591 12.546 52.0791 11.97C51.2991 11.382 50.4111 11.088 49.4151 11.088C48.2871 11.088 47.3571 11.358 46.6251 11.898C45.8931 12.426 45.3531 13.158 45.0051 14.094C44.6571 15.03 44.4831 16.092 44.4831 17.28C44.4831 19.128 44.8971 20.622 45.7251 21.762C46.5531 22.902 47.7831 23.472 49.4151 23.472C50.5671 23.472 51.4731 23.208 52.1331 22.68C52.8051 22.152 53.3091 21.39 53.6451 20.394L58.0731 21.384C57.4731 23.364 56.4231 24.888 54.9231 25.956C53.4231 27.012 51.5871 27.54 49.4151 27.54ZM73.6262 27V17.64C73.6262 17.028 73.5842 16.35 73.5002 15.606C73.4162 14.862 73.2182 14.148 72.9062 13.464C72.6062 12.768 72.1502 12.198 71.5382 11.754C70.9382 11.31 70.1222 11.088 69.0902 11.088C68.5382 11.088 67.9922 11.178 67.4522 11.358C66.9122 11.538 66.4202 11.85 65.9762 12.294C65.5442 12.726 65.1962 13.326 64.9322 14.094C64.6682 14.85 64.5362 15.822 64.5362 17.01L61.9622 15.912C61.9622 14.256 62.2802 12.756 62.9162 11.412C63.5642 10.068 64.5122 9 65.7602 8.208C67.0082 7.404 68.5442 7.002 70.3682 7.002C71.8082 7.002 72.9962 7.242 73.9322 7.722C74.8682 8.202 75.6122 8.814 76.1642 9.558C76.7162 10.302 77.1242 11.094 77.3882 11.934C77.6522 12.774 77.8202 13.572 77.8922 14.328C77.9762 15.072 78.0182 15.678 78.0182 16.146V27H73.6262ZM60.1442 27V1.08H64.0142V14.724H64.5362V27H60.1442ZM81.5753 4.608V0.629999H85.9133V4.608H81.5753ZM81.5753 27V7.56H85.9133V27H81.5753ZM89.8052 27V7.56H93.6392V12.294L93.1712 11.682C93.4112 11.034 93.7292 10.446 94.1252 9.918C94.5332 9.378 95.0192 8.934 95.5832 8.586C96.0632 8.262 96.5912 8.01 97.1672 7.83C97.7552 7.638 98.3552 7.524 98.9672 7.488C99.5792 7.44 100.173 7.464 100.749 7.56V11.61C100.173 11.442 99.5072 11.388 98.7512 11.448C98.0072 11.508 97.3352 11.718 96.7352 12.078C96.1352 12.402 95.6432 12.816 95.2592 13.32C94.8872 13.824 94.6112 14.4 94.4312 15.048C94.2512 15.684 94.1612 16.374 94.1612 17.118V27H89.8052ZM107.663 27.54C106.259 27.54 105.071 27.276 104.099 26.748C103.127 26.208 102.389 25.494 101.885 24.606C101.393 23.718 101.147 22.74 101.147 21.672C101.147 20.736 101.303 19.896 101.615 19.152C101.927 18.396 102.407 17.748 103.055 17.208C103.703 16.656 104.543 16.206 105.575 15.858C106.355 15.606 107.267 15.378 108.311 15.174C109.367 14.97 110.507 14.784 111.731 14.616C112.967 14.436 114.257 14.244 115.601 14.04L114.053 14.922C114.065 13.578 113.765 12.588 113.153 11.952C112.541 11.316 111.509 10.998 110.057 10.998C109.181 10.998 108.335 11.202 107.519 11.61C106.703 12.018 106.133 12.72 105.809 13.716L101.849 12.474C102.329 10.83 103.241 9.51 104.585 8.514C105.941 7.518 107.765 7.02 110.057 7.02C111.785 7.02 113.303 7.302 114.611 7.866C115.931 8.43 116.909 9.354 117.545 10.638C117.893 11.322 118.103 12.024 118.175 12.744C118.247 13.452 118.283 14.226 118.283 15.066V27H114.485V22.788L115.115 23.472C114.239 24.876 113.213 25.908 112.037 26.568C110.873 27.216 109.415 27.54 107.663 27.54ZM108.527 24.084C109.511 24.084 110.351 23.91 111.047 23.562C111.743 23.214 112.295 22.788 112.703 22.284C113.123 21.78 113.405 21.306 113.549 20.862C113.777 20.31 113.903 19.68 113.927 18.972C113.963 18.252 113.981 17.67 113.981 17.226L115.313 17.622C114.005 17.826 112.883 18.006 111.947 18.162C111.011 18.318 110.207 18.468 109.535 18.612C108.863 18.744 108.269 18.894 107.753 19.062C107.249 19.242 106.823 19.452 106.475 19.692C106.127 19.932 105.857 20.208 105.665 20.52C105.485 20.832 105.395 21.198 105.395 21.618C105.395 22.098 105.515 22.524 105.755 22.896C105.995 23.256 106.343 23.544 106.799 23.76C107.267 23.976 107.843 24.084 108.527 24.084Z" fill="#3C9379"/>
</svg>
